<?xml version="1.0" standalone="no"?>
<!DOCTYPE svg PUBLIC "-//W3C//DTD SVG 20010904//EN"
 "http://www.w3.org/TR/2001/REC-SVG-20010904/DTD/svg10.dtd">
<svg version="1.0" xmlns="http://www.w3.org/2000/svg"
 width="1248.000000pt" height="1248.000000pt" viewBox="0 0 1248.000000 1248.000000"
 preserveAspectRatio="xMidYMid meet">
<metadata>
Created by potrace 1.11, written by Peter Selinger 2001-2013
</metadata>
<g transform="translate(0.000000,1248.000000) scale(0.100000,-0.100000)"
fill="#000000" stroke="none">
<path d="M4119 11335 c-1 0 -3 -666 -4 -1480 -2 -814 -3 -1482 -4 -1485 -1 -3
-667 -5 -1481 -5 -814 1 -1481 -2 -1481 -5 -1 -3 -2 -1626 -3 -3607 l-2 -3603
3607 0 3606 0 0 1487 0 1486 1486 0 1487 0 0 3603 c0 1982 -3 3605 -7 3605 -7
2 -7200 6 -7204 4z m5926 -1274 c7 -1 10 -781 9 -2323 -1 -1278 -2 -2328 -3
-2333 -1 -7 -287 -10 -846 -10 -744 0 -845 2 -846 15 0 8 -1 677 -2 1485 l-2
1470 -1470 1 c-808 1 -1477 2 -1485 3 -13 1 -15 100 -13 834 1 457 2 839 2
847 1 13 265 15 2323 13 1278 0 2328 -1 2333 -2z m-5938 -2975 c4 -4 7 -672 8
-1484 l0 -1477 1476 -1 c812 -1 1480 -4 1485 -7 7 -4 12 -1660 5 -1687 -2 -7
-4644 -6 -4656 2 -15 9 -13 4647 2 4656 14 9 1672 7 1680 -2z m2933 4 l45 0 0
-845 c0 -465 -2 -846 -5 -846 -19 -5 -1674 -3 -1682 2 -8 5 -14 1103 -9 1626
1 49 4 62 18 65 12 2 1351 1 1633 -2z"/>
</g>
</svg>
